<?xml version="1.0" encoding="UTF-8"?>
<svg xmlns="http://www.w3.org/2000/svg" xmlns:svg="http://www.w3.org/2000/svg" xmlns:xlink="http://www.w3.org/1999/xlink" width="1765.35" height="1132.87" viewBox="0 0 1765.35 1132.87" preserveAspectRatio="xMidYMid meet">
	<g transform="matrix(1, 0, 0, 1, 616.69384765625, 439.59466552734375)">
		<path transform="matrix(1.5506004095077515, 0, 0, 1.5506004095077515, -657.45458984375, -589.2281494140625)" d="M113.84,697.45 C87.73,666.55 66.26,631.6 51.73,593.8 C41.15,566.52 33.26,538 29.73,508.87 C24.71,476.62 25.71,443.57 29.32,411.2 C33.98,384.05 39.93,356.94 50.33,331.29 C62.21,298.5 80.17,268.15 100.67,240.12 C126.78,207.19 157.61,177.47 193.08,154.8 C219.86,137.89 248.39,123.46 278.81,114.26 C323.48,99.29 371.09,94.01 418.01,97.56 C470.44,101.34 522.04,117.13 567.84,142.84 C579.7,149.34 590.85,157.33 602.15,164.49 C571.44,154.48 539.5,145.24 506.87,142.92 C452.89,138.37 397.84,144.7 347.01,163.69 C289.69,184.62 237.76,220.4 197.71,266.43 C177.44,291.24 158.94,317.52 145.26,346.56 C114.49,409.84 102.96,482.11 112.04,551.87 C119.7,611.14 142.14,668.46 177.08,716.94 C192.06,739.97 212.46,758.92 231.93,778.1 C239.68,785.99 250.99,792.17 257.92,799.2 C223.54,786.87 191.93,767.42 163.16,745.14 C145.58,730.53 129.41,714.16 113.84,697.45 ZM228.22,715.35 C216.19,699.97 203.71,684.84 194.28,667.6 C155.13,600.91 140.71,519.87 156.09,443.93 C165.87,390.17 191.14,339.87 225.5,297.64 C239.55,281.14 255.64,266.35 271.97,252.14 C291.02,238.71 309.99,224.91 331.28,215.2 C356.15,201.94 383.91,195.04 411.19,188.54 C418.68,186.46 440.95,183.46 422.57,189.43 C375.23,207.81 333.74,239.41 299.94,276.98 C283.45,296.27 269.91,317.95 257.47,340.02 C237.15,382.08 223.36,427.86 222.35,474.81 C219.97,519.08 228.49,563.53 244.2,604.84 C268.33,666.64 311.75,721.17 367.89,756.82 C403.28,779.91 443.43,795.97 484.95,803.84 C517.61,809.26 551.01,809.63 583.89,807 C571.1,813.21 555.23,816.86 540.76,820.03 C503.5,829.06 464.47,828.23 426.58,824.25 C365.2,815.33 306.38,788.45 260.09,747.06 C248.62,737.46 238.1,726.56 228.22,715.35 Z" style="fill:#a395e8;" />
		<g transform="matrix(5.508187770843506, 0, 0, 5.508187770843506, 493.3760681152344, 166.59619140625)">
			<path d="M-73.75,-49.27 Q-75.87,-49.27 -78.18,-48.85 Q-80.5,-48.44 -82.39,-47.15 Q-84.29,-45.86 -85.51,-43.51 Q-86.72,-41.15 -86.72,-37.21 Q-86.72,-33.19 -85.35,-27.99 Q-83.99,-22.79 -82.39,-16.46 Q-80.8,-10.12 -79.44,-2.72 Q-78.07,4.67 -78.07,12.94 Q-78.07,20.91 -79.78,27.17 Q-81.48,33.43 -84.29,37.9 Q-80.95,38.81 -77.39,39.72 Q-73.82,40.63 -69.65,41.32 Q-67.22,41.77 -64.68,41.96 Q-62.14,42.15 -59.56,42.15 Q-55.16,42.15 -51.06,41.36 Q-46.96,40.56 -43.81,38.74 Q-40.67,36.92 -38.77,33.92 Q-36.87,30.92 -36.87,26.45 Q-36.87,25.76 -36.95,25.04 Q-37.02,24.32 -37.02,23.49 Q-37.02,21.67 -35.81,21.67 Q-35.43,21.67 -34.9,22.12 Q-34.37,22.58 -33.88,23.64 Q-33.38,24.7 -33.04,26.41 Q-32.7,28.12 -32.7,30.54 Q-32.7,32.44 -33.16,34.87 Q-33.61,37.3 -34.71,39.91 Q-35.81,42.53 -37.67,45.07 Q-39.53,47.61 -42.34,49.63 Q-45.14,51.64 -49.05,52.85 Q-52.96,54.06 -58.12,54.06 Q-62.44,54.06 -66.99,53.34 Q-71.55,52.62 -76.06,51.48 Q-80.57,50.35 -84.78,48.9 Q-89,47.46 -92.56,46.1 Q-95.98,48.3 -100.03,49.7 Q-104.09,51.1 -108.11,51.1 Q-113.27,51.1 -115.97,48.94 Q-118.66,46.78 -118.66,43.37 Q-118.66,39.72 -115.09,37.22 Q-111.53,34.72 -103.64,34.72 Q-101.74,34.72 -99.96,34.87 Q-98.18,35.02 -96.43,35.25 Q-94.38,30.39 -93.32,24.4 Q-92.26,18.4 -92.26,11.96 Q-92.26,6.87 -92.98,1.9 Q-93.7,-3.07 -94.53,-7.96 Q-95.37,-12.85 -96.09,-17.79 Q-96.81,-22.72 -96.81,-27.8 Q-96.81,-35.69 -94.84,-42.37 Q-92.86,-49.04 -89.15,-53.86 Q-85.43,-58.68 -80.19,-61.41 Q-74.96,-64.14 -68.36,-64.14 Q-62.37,-64.14 -57.4,-62.28 Q-52.43,-60.42 -48.78,-57.92 Q-45.14,-55.42 -42.98,-52.91 Q-40.82,-50.41 -40.44,-49.12 Q-40.29,-48.36 -40.14,-47.87 Q-39.98,-47.37 -39.98,-47 Q-39.98,-46.16 -40.4,-45.71 Q-40.82,-45.25 -41.35,-44.42 Q-41.8,-43.66 -42.41,-43.32 Q-43.02,-42.97 -43.63,-42.75 Q-44.23,-42.52 -44.8,-42.22 Q-45.37,-41.91 -45.67,-41.15 Q-46.2,-40.01 -47.12,-39.45 Q-48.03,-38.88 -49.09,-38.88 Q-50.38,-38.88 -51.21,-39.41 Q-51.82,-39.79 -53.75,-41.38 Q-55.69,-42.97 -58.65,-44.72 Q-61.61,-46.46 -65.48,-47.87 Q-69.35,-49.27 -73.75,-49.27 ZM-110.09,47.24 Q-107.43,47.24 -105.16,46.02 Q-102.88,44.81 -100.98,42.68 Q-104.32,41.39 -106.48,40.79 Q-108.65,40.18 -110.24,40.18 Q-111.83,40.18 -112.74,40.6 Q-113.65,41.01 -114.11,41.58 Q-114.56,42.15 -114.68,42.8 Q-114.79,43.44 -114.79,43.82 Q-114.79,45.11 -113.62,46.17 Q-112.44,47.24 -110.09,47.24 ZM24.58,17.57 Q22.15,24.32 20.22,29.44 Q18.28,34.57 16.31,38.02 Q14.34,41.47 12.03,43.21 Q9.71,44.96 6.6,44.96 Q3.95,44.96 2.12,43.4 Q0.3,41.85 -0.76,39.46 Q-1.82,37.07 -2.28,34.19 Q-2.73,31.3 -2.73,28.65 Q-2.73,26.67 -2.73,24.85 Q-2.73,23.03 -2.58,21.44 Q-4.25,28.19 -5.96,32.74 Q-7.66,37.3 -9.41,40.03 Q-11.15,42.76 -13.09,43.94 Q-15.02,45.11 -17.15,45.11 Q-18.74,45.11 -20.37,44.31 Q-22,43.52 -23.37,41.24 Q-24.73,38.97 -25.61,34.83 Q-26.48,30.7 -26.48,23.94 Q-26.48,22.27 -26.4,19.88 Q-26.33,17.49 -26.1,14.88 Q-25.87,12.26 -25.53,9.72 Q-25.19,7.18 -24.66,5.13 Q-24.43,4.22 -24.05,2.93 Q-23.67,1.64 -23.29,1.26 Q-22.46,0.5 -21.89,-0.11 Q-21.32,-0.71 -20.94,-0.71 Q-20.41,-0.71 -20.07,-0.3 Q-19.73,0.12 -19.35,0.12 Q-19.12,0.12 -18.47,-0.26 Q-17.83,-0.64 -17.07,-1.09 Q-16.31,-1.55 -15.59,-1.93 Q-14.87,-2.31 -14.57,-2.31 Q-13.66,-2.31 -13.66,-0.64 Q-13.66,-0.18 -13.73,0.42 Q-13.81,1.03 -13.96,1.87 Q-14.64,6.72 -14.91,11.24 Q-15.17,15.75 -15.17,20.91 Q-15.17,23.79 -15.1,26.14 Q-15.02,28.5 -14.76,30.2 Q-14.49,31.91 -13.88,32.86 Q-13.28,33.81 -12.22,33.81 Q-10.7,33.81 -9.41,31.8 Q-8.12,29.79 -7.02,26.6 Q-5.92,23.41 -4.93,19.54 Q-3.95,15.67 -3.03,11.99 Q-2.12,8.31 -1.18,5.2 Q-0.23,2.09 0.76,0.5 Q1.75,-1.02 3.38,-2 Q5.01,-2.99 6.45,-2.99 Q8.12,-2.99 8.84,-1.74 Q9.56,-0.49 9.56,3.08 Q9.56,5.66 9.41,7.93 Q9.26,10.21 9.1,12.64 Q8.95,15.07 8.8,17.84 Q8.65,20.61 8.65,24.02 Q8.65,27.13 8.91,29.06 Q9.18,31 9.64,32.06 Q10.09,33.12 10.62,33.5 Q11.15,33.88 11.68,33.88 Q12.97,33.88 14.11,32.74 Q15.25,31.61 16.43,29.44 Q17.6,27.28 18.85,24.17 Q20.11,21.06 21.62,17.12 Q22,16.2 22.53,15.71 Q23.06,15.22 23.67,15.22 Q24.13,15.22 24.47,15.56 Q24.81,15.9 24.81,16.51 Q24.81,17.04 24.58,17.57 ZM77.99,15.22 Q78.45,15.22 78.79,15.56 Q79.13,15.9 79.13,16.51 Q79.13,17.12 78.9,17.65 Q76.55,24.4 74.58,29.52 Q72.61,34.64 70.6,38.06 Q68.59,41.47 66.46,43.21 Q64.34,44.96 61.76,44.96 Q58.57,44.96 56.6,43.48 Q54.63,42 53.49,39.65 Q52.35,37.3 51.97,34.38 Q51.59,31.45 51.59,28.57 Q51.59,26.52 51.67,24.51 Q51.74,22.5 51.86,20.68 Q51.97,18.86 52.05,17.42 Q52.12,15.98 52.12,15.07 Q52.12,13.63 51.63,12.98 Q51.14,12.34 50.53,12.34 Q49.85,12.34 49.39,12.98 Q48.94,13.63 48.63,14.46 Q48.25,15.37 47.49,17.72 Q46.74,20.07 45.75,23.03 Q44.76,25.99 43.66,29.22 Q42.56,32.44 41.65,35.02 Q40.44,38.36 39.34,40.45 Q38.24,42.53 37.25,43.67 Q36.27,44.81 35.32,45.22 Q34.37,45.64 33.53,45.64 Q32.78,45.64 31.98,45.34 Q31.18,45.04 30.54,44.35 Q29.89,43.67 29.44,42.49 Q28.98,41.32 28.98,39.5 Q28.83,35.63 28.79,31.11 Q28.75,26.6 28.75,22.27 Q28.75,20.23 28.79,18.33 Q28.83,16.43 28.83,14.84 Q28.83,12.64 28.6,11.69 Q28.38,10.74 28,10.74 Q27.16,10.74 26.59,12.37 Q26.02,14 24.66,17.42 Q24.2,18.56 23.71,19.01 Q23.22,19.47 22.69,19.47 Q22.23,19.47 21.89,19.13 Q21.55,18.78 21.55,17.95 Q21.55,17.49 21.93,16.32 Q22.31,15.14 22.87,13.74 Q23.44,12.34 24.01,10.86 Q24.58,9.38 25.04,8.31 Q25.72,6.57 26.67,4.71 Q27.62,2.85 28.79,1.3 Q29.97,-0.26 31.37,-1.28 Q32.78,-2.31 34.44,-2.31 Q36.65,-2.31 38.35,0.12 Q40.06,2.55 40.21,7.48 Q40.29,11.42 40.32,14.95 Q40.36,18.48 40.44,21.1 Q40.51,23.72 40.55,25.27 Q40.59,26.83 40.67,26.83 Q40.82,26.83 41.35,25.46 Q41.88,24.1 42.71,21.86 Q43.55,19.62 44.61,16.77 Q45.67,13.93 46.85,11.01 Q48.03,8.09 49.32,5.39 Q50.61,2.7 51.89,0.65 Q53.26,-1.55 54.82,-2.69 Q56.37,-3.83 58.34,-3.83 Q61.08,-3.83 62.29,-0.6 Q63.5,2.62 63.5,8.09 Q63.5,9.45 63.43,11.42 Q63.35,13.4 63.24,15.6 Q63.12,17.8 63.05,20 Q62.97,22.2 62.97,24.02 Q62.97,27.13 63.24,29.06 Q63.5,31 63.96,32.06 Q64.41,33.12 64.94,33.5 Q65.48,33.88 66.01,33.88 Q67.52,33.88 68.78,32.52 Q70.03,31.15 71.17,28.8 Q72.3,26.45 73.44,23.45 Q74.58,20.45 75.95,17.12 Q76.63,15.22 77.99,15.22 ZM118.81,17.57 Q116.54,24.4 114.56,29.52 Q112.59,34.64 110.62,38.09 Q108.65,41.55 106.41,43.29 Q104.17,45.04 101.44,45.04 Q99.54,45.04 98.29,43.82 Q97.04,42.61 96.2,41.09 Q95.37,39.57 94.95,38.17 Q94.53,36.77 94.38,36.31 Q94.31,36.16 94.23,35.85 Q94.15,35.55 94,35.55 Q93.85,35.55 93.74,35.78 Q93.62,36.01 93.47,36.23 Q93.24,36.77 92.26,38.21 Q91.27,39.65 89.79,41.17 Q88.31,42.68 86.42,43.86 Q84.52,45.04 82.32,45.04 Q80.57,45.04 78.94,43.9 Q77.31,42.76 76.1,40.82 Q74.88,38.89 74.16,36.23 Q73.44,33.58 73.44,30.54 Q73.44,23.94 75.53,18.14 Q77.61,12.34 82.32,6.49 Q84.59,3.69 87.14,1.49 Q89.68,-0.71 92.11,-2.19 Q94.53,-3.67 96.77,-4.43 Q99.01,-5.19 100.6,-5.19 Q101.67,-5.19 102.73,-4.81 Q103.79,-4.43 104.62,-3.52 Q105.46,-2.61 105.95,-1.13 Q106.45,0.35 106.45,2.47 Q106.45,4.75 105.72,7.4 Q105,10.06 103.6,12.37 Q102.2,14.69 100.15,16.2 Q98.1,17.72 95.52,17.72 Q93.93,17.72 93.93,16.51 Q93.93,15.67 94.34,13.78 Q94.76,11.88 94.76,10.14 Q94.76,9.45 94.69,8.5 Q94.61,7.56 94.31,6.64 Q94,5.73 93.47,5.13 Q92.94,4.52 92.03,4.52 Q89.98,4.52 88.46,6.42 Q86.95,8.31 85.92,11.05 Q84.9,13.78 84.37,16.74 Q83.84,19.69 83.84,21.82 Q83.84,24.7 84.29,26.64 Q84.75,28.57 85.51,29.75 Q86.26,30.92 87.25,31.42 Q88.24,31.91 89.3,31.91 Q91.8,31.91 93.78,30.2 Q95.75,28.5 97.19,26.41 Q98.63,24.32 99.58,22.62 Q100.53,20.91 101.13,20.91 Q101.82,20.91 102.04,22.5 Q102.5,25.92 103.03,28.12 Q103.56,30.32 104.09,31.57 Q104.62,32.82 105.19,33.31 Q105.76,33.81 106.37,33.81 Q107.51,33.81 108.65,32.48 Q109.78,31.15 110.92,28.87 Q112.06,26.6 113.27,23.56 Q114.49,20.53 115.85,17.12 Q116.69,15.22 117.83,15.22 Q118.96,15.22 118.96,16.58 Q118.96,17.12 118.81,17.57 Z" fill="#a395e8" />
		</g>
	</g>
</svg>